<svg width="271" height="206" viewBox="0 0 271 206" fill="none" xmlns="http://www.w3.org/2000/svg">
<path d="M7.98556 122.908C-2.54911 112.036 -2.67719 94.275 7.69949 83.2374C18.0762 72.1998 35.0282 72.0656 45.5628 82.9377L117.622 157.305C128.157 168.177 128.285 185.938 117.908 196.976C107.532 208.014 90.5797 208.148 80.045 197.276L7.98556 122.908Z" fill="#D9D9D9"/>
<path d="M225.259 8.25283C235.696 -2.72243 252.648 -2.75505 263.123 8.17998C273.598 19.115 273.629 36.8768 263.193 47.8521L120.652 197.747C110.215 208.722 93.2629 208.755 82.7878 197.82C72.3126 186.885 72.2815 169.123 82.7182 158.148L225.259 8.25283Z" fill="#D9D9D9"/>
</svg>
