<svg width="211" height="200" viewBox="0 0 211 200" fill="none" xmlns="http://www.w3.org/2000/svg">
<path d="M25.3915 100C17.2632 100 10.5628 93.3755 11.7548 85.3351C14.5057 66.7798 22.4397 49.2652 34.7836 34.8799C50.3407 16.7498 71.8744 4.78825 95.4871 1.16015C119.1 -2.46794 143.231 2.47719 163.514 15.1005C183.796 27.7238 198.889 47.1911 206.061 69.9789C213.233 92.7668 212.01 117.369 202.613 139.333C193.217 161.298 176.268 179.172 154.833 189.722C133.399 200.271 108.896 202.799 85.7596 196.847C67.4018 192.124 50.8668 182.311 37.9847 168.676C32.4026 162.767 34.101 153.499 40.7641 148.844C47.4273 144.189 56.5167 145.962 62.4509 151.517C71.036 159.553 81.5543 165.371 93.0931 168.34C109.419 172.54 126.71 170.756 141.835 163.312C156.96 155.868 168.92 143.255 175.551 127.756C182.182 112.257 183.045 94.8959 177.984 78.8158C172.923 62.7356 162.272 48.9985 147.96 40.0909C133.648 31.1833 116.62 27.6938 99.9573 30.254C83.2951 32.8141 68.0999 41.2548 57.1221 54.0482C49.3633 63.0902 44.0735 73.8842 41.6384 85.3886C39.9551 93.3408 33.5198 100 25.3915 100Z" fill="#D9D9D9"/>
<path d="M29.3509 127.317C28.5602 128.536 26.7745 128.532 25.9897 127.309L0.320081 87.3093C-0.535315 85.9764 0.424328 84.2253 2.00812 84.2291L53.54 84.3534C55.1238 84.3572 56.075 86.1129 55.2132 87.4417L29.3509 127.317Z" fill="#D9D9D9"/>
</svg>
